<?xml version="1.0" encoding="utf-8"?>
<!-- Generator: Adobe Illustrator 26.0.0, SVG Export Plug-In . SVG Version: 6.00 Build 0)  -->
<svg version="1.1" id="Layer_1" xmlns="http://www.w3.org/2000/svg" xmlns:xlink="http://www.w3.org/1999/xlink" x="0px" y="0px"
	 viewBox="0 0 72 17" style="enable-background:new 0 0 72 17;" xml:space="preserve">
<style type="text/css">
	.st0{fill:#110E38;}
</style>
<g>
	<path class="st0" d="M6.2,4.8H2.7V1.5h10.7v3.2H9.8v10.8H6.2V4.8z"/>
	<path class="st0" d="M27.2,15.6h-3.6v-5.4H19v5.4h-3.6v-14H19v5.4h4.5V1.5h3.6V15.6z"/>
	<path class="st0" d="M28.9,1.5h9.9v3.2h-6.3v2.2h5.1v3.2h-5.1v5.4h-3.6V1.5z"/>
	<path class="st0" d="M40,12.1c2.3-2.4,5.2,2,2.2,3.2C40.2,16.2,38.3,13.6,40,12.1z"/>
	<path class="st0" d="M55.4,14.9c-2.5,1.2-5.9,0.9-7.9-1.1l0,0C42.2,8.1,48.7-2,55.9,2.5l-1.8,2.4c-6.5-2.1-6,10,0.5,7.2l1.7,2.3
		C56,14.6,55.7,14.8,55.4,14.9z"/>
	<path class="st0" d="M62.7,1.5c0.9,0,1.9,0.1,2.7,0.5c5.1,2,5.1,11.1,0,13.1c-1.7,0.7-3.7,0.7-5.3,0C53.9,12.6,55.6,1.2,62.7,1.5z
		 M62.8,12.3c3.7-0.3,3.7-7.2,0-7.5C59.1,5,59.1,12.1,62.8,12.3z"/>
</g>
</svg>
