<?xml version="1.0" encoding="utf-8"?>
<!-- Generator: Adobe Illustrator 26.0.0, SVG Export Plug-In . SVG Version: 6.00 Build 0)  -->
<svg version="1.1" id="Layer_1" xmlns="http://www.w3.org/2000/svg" xmlns:xlink="http://www.w3.org/1999/xlink" x="0px" y="0px"
	 viewBox="0 0 72 17" style="enable-background:new 0 0 72 17;" xml:space="preserve">
<style type="text/css">
	.st0{fill:#110E38;}
</style>
<g>
	<path class="st0" d="M4.6,4.5H0.9V1.1h11.3v3.4H8.4v11.4H4.6V4.5z"/>
	<path class="st0" d="M26.7,15.9h-3.8v-5.7h-4.8v5.7h-3.8V1.1h3.8v5.7h4.8V1.1h3.8V15.9z"/>
	<path class="st0" d="M28.5,1.1H39v3.4h-6.7v2.3h5.4v3.4h-5.4v5.7h-3.8V1.1z"/>
	<path class="st0" d="M40.2,12.3c2.4-2.5,5.5,2.1,2.3,3.4C40.5,16.6,38.5,13.8,40.2,12.3z"/>
	<path class="st0" d="M56.5,15.2c-2.6,1.3-6.2,1-8.3-1.2l0,0C42.6,8,49.4-2.6,57,2.1l-1.9,2.5c-6.9-2.2-6.3,10.6,0.5,7.6l1.8,2.4
		C57.1,14.9,56.8,15.1,56.5,15.2z"/>
	<path class="st0" d="M64.2,1.1c1,0,2,0.1,2.9,0.5c5.4,2.1,5.4,11.7,0,13.8c-1.8,0.7-3.9,0.7-5.6,0C54.9,12.8,56.7,0.7,64.2,1.1z
		 M64.3,12.5c3.9-0.3,3.9-7.6,0-7.9C60.4,4.8,60.4,12.2,64.3,12.5z"/>
</g>
</svg>
