<?xml version="1.0" encoding="utf-8"?>
<!-- Generator: Adobe Illustrator 26.0.0, SVG Export Plug-In . SVG Version: 6.00 Build 0)  -->
<svg version="1.1" id="Layer_1"  width="72" height="17" xmlns="http://www.w3.org/2000/svg" xmlns:xlink="http://www.w3.org/1999/xlink" x="0px" y="0px"
	 viewBox="0 0 72 17" style="enable-background:new 0 0 72 17;" xml:space="preserve">
<style type="text/css">
	.st0{fill:#110E38;}
</style>
<g>
	<path class="st0" d="M4.2,4.6H0.5V1.1H12v3.4H8.1v11.6H4.2V4.6z"/>
	<path class="st0" d="M26.8,16.2h-3.9v-5.8H18v5.8h-3.9v-15H18V7h4.8V1.1h3.9v15.1H26.8z"/>
	<path class="st0" d="M28.6,1.1h10.6v3.4h-6.8v2.4h5.5v3.4h-5.5v5.8h-3.9V1.1z"/>
	<path class="st0" d="M40.5,12.4c2.5-2.6,5.6,2.1,2.4,3.4C40.7,16.8,38.7,14,40.5,12.4z"/>
	<path class="st0" d="M57,15.4c-2.7,1.3-6.3,1-8.5-1.2l0,0c-5.7-6.1,1.3-17,9-12.1l-1.9,2.6c-7-2.3-6.4,10.7,0.5,7.7l1.8,2.5
		C57.7,15.1,57.3,15.3,57,15.4z"/>
	<path class="st0" d="M64.9,1.1c1,0,2,0.1,2.9,0.5c5.5,2.1,5.5,11.9,0,14.1c-1.8,0.8-4,0.8-5.7,0C55.4,13,57.2,0.7,64.9,1.1z
		 M65,12.6c4-0.3,4-7.7,0-8C61,4.8,61,12.4,65,12.6z"/>
</g>
</svg>
