<?xml version="1.0" encoding="utf-8"?>
<!-- Generator: Adobe Illustrator 26.0.0, SVG Export Plug-In . SVG Version: 6.00 Build 0)  -->
<svg version="1.1" id="Layer_1" xmlns="http://www.w3.org/2000/svg" xmlns:xlink="http://www.w3.org/1999/xlink" x="0px" y="0px"
	 width="72" height="17" viewBox="0 0 72 17" style="enable-background:new 0 0 72 17;" xml:space="preserve">
<style type="text/css">
	.st0{fill:#110E38;}
</style>
<g>
	<path class="st0" d="M5.6,4.6H1.9V1.1h11.5v3.4H9.5v11.6H5.6V4.6z"/>
	<path class="st0" d="M27.5,16.1h-3.9v-5.8h-4.9v5.8h-3.9v-15h3.9v5.8h4.8V1h3.9L27.5,16.1L27.5,16.1z"/>
	<path class="st0" d="M28.8,1h10.6v3.4h-6.8v2.4h5.5v3.4h-5.5V16h-3.9L28.8,1L28.8,1z"/>
	<path class="st0" d="M40.7,12.3c2.5-2.6,5.6,2.1,2.4,3.4C40.9,16.7,38.9,13.9,40.7,12.3z"/>
	<path class="st0" d="M55.2,15.3c-2.7,1.3-6.3,1-8.5-1.2l0,0C41,8,48-2.9,55.7,2l-1.9,2.6c-7-2.3-6.4,10.7,0.5,7.7l1.8,2.5
		C55.9,15,55.5,15.2,55.2,15.3z"/>
	<path class="st0" d="M63.1,1c1,0,2,0.1,2.9,0.5c5.5,2.1,5.5,11.9,0,14.1c-1.8,0.8-4,0.8-5.7,0C53.6,12.9,55.4,0.6,63.1,1z
		 M63.2,12.5c4-0.3,4-7.7,0-8C59.2,4.7,59.2,12.3,63.2,12.5z"/>
</g>
</svg>
